<svg width="2267" height="643" viewBox="0 0 2267 643" fill="none" xmlns="http://www.w3.org/2000/svg">
<rect width="2267" height="643" fill="black"/>
<path d="M929.04 444.4C925.027 447.84 918.72 450.85 910.12 453.43C901.807 456.01 892.633 457.3 882.6 457.3C870.56 457.3 860.24 455.58 851.64 452.14C843.04 448.413 837.163 443.397 834.01 437.09C830.857 430.497 826.987 422.04 822.4 411.72C817.813 401.113 812.94 389.36 807.78 376.46C802.907 363.56 797.747 349.943 792.3 335.61C787.14 320.99 782.123 306.227 777.25 291.32C772.377 276.413 767.79 261.793 763.49 247.46C759.19 233.127 755.463 219.653 752.31 207.04C756.323 203.027 762.057 199.443 769.51 196.29C777.25 192.85 785.42 191.13 794.02 191.13C804.627 191.13 813.227 193.423 819.82 198.01C826.7 202.31 831.717 210.48 834.87 222.52C842.61 250.613 850.35 277.56 858.09 303.36C866.117 328.873 874.43 355.533 883.03 383.34H885.61C893.35 356.393 901.233 327.01 909.26 295.19C917.573 263.37 925.457 231.693 932.91 200.16C938.07 197.58 943.517 195.43 949.25 193.71C955.27 191.99 962.007 191.13 969.46 191.13C980.067 191.13 989.097 193.567 996.55 198.44C1004 203.027 1007.73 210.767 1007.73 221.66C1007.73 227.967 1006.15 237.14 1003 249.18C1000.13 261.22 996.263 274.837 991.39 290.03C986.803 304.937 981.5 320.56 975.48 336.9C969.747 353.24 963.87 368.72 957.85 383.34C952.117 397.673 946.67 410.43 941.51 421.61C936.35 432.503 932.193 440.1 929.04 444.4ZM1129.33 406.56C1134.2 406.56 1139.51 406.13 1145.24 405.27C1151.26 404.123 1155.7 402.69 1158.57 400.97V366.57L1127.61 369.15C1119.58 369.723 1112.99 371.443 1107.83 374.31C1102.67 377.177 1100.09 381.477 1100.09 387.21C1100.09 392.943 1102.24 397.673 1106.54 401.4C1111.13 404.84 1118.72 406.56 1129.33 406.56ZM1125.89 237.57C1141.37 237.57 1155.42 239.147 1168.03 242.3C1180.93 245.453 1191.82 250.327 1200.71 256.92C1209.88 263.227 1216.91 271.397 1221.78 281.43C1226.65 291.177 1229.09 302.787 1229.09 316.26V412.58C1229.09 420.033 1226.94 426.197 1222.64 431.07C1218.63 435.657 1213.75 439.67 1208.02 443.11C1189.39 454.29 1163.16 459.88 1129.33 459.88C1114.14 459.88 1100.38 458.447 1088.05 455.58C1076.01 452.713 1065.55 448.413 1056.66 442.68C1048.06 436.947 1041.32 429.637 1036.45 420.75C1031.86 411.863 1029.57 401.543 1029.57 389.79C1029.57 370.01 1035.45 354.817 1047.2 344.21C1058.95 333.603 1077.16 327.01 1101.81 324.43L1158.14 318.41V315.4C1158.14 307.087 1154.41 301.21 1146.96 297.77C1139.79 294.043 1129.33 292.18 1115.57 292.18C1104.68 292.18 1094.07 293.327 1083.75 295.62C1073.43 297.913 1064.11 300.78 1055.8 304.22C1052.07 301.64 1048.92 297.77 1046.34 292.61C1043.76 287.163 1042.47 281.573 1042.47 275.84C1042.47 268.387 1044.19 262.51 1047.63 258.21C1051.36 253.623 1056.95 249.753 1064.4 246.6C1072.71 243.447 1082.46 241.153 1093.64 239.72C1105.11 238.287 1115.86 237.57 1125.89 237.57ZM1346.89 452.57C1344.02 453.43 1339.43 454.29 1333.13 455.15C1327.11 456.01 1320.8 456.44 1314.21 456.44C1307.9 456.44 1302.17 456.01 1297.01 455.15C1292.13 454.29 1287.98 452.57 1284.54 449.99C1281.1 447.41 1278.37 443.97 1276.37 439.67C1274.65 435.083 1273.79 429.207 1273.79 422.04V293.04C1273.79 286.447 1274.93 280.857 1277.23 276.27C1279.81 271.397 1283.39 267.097 1287.98 263.37C1292.56 259.643 1298.15 256.347 1304.75 253.48C1311.63 250.327 1318.94 247.603 1326.68 245.31C1334.42 243.017 1342.44 241.297 1350.76 240.15C1359.07 238.717 1367.38 238 1375.7 238C1389.46 238 1400.35 240.723 1408.38 246.17C1416.4 251.33 1420.42 259.93 1420.42 271.97C1420.42 275.983 1419.84 279.997 1418.7 284.01C1417.55 287.737 1416.12 291.177 1414.4 294.33C1408.38 294.33 1402.21 294.617 1395.91 295.19C1389.6 295.763 1383.44 296.623 1377.42 297.77C1371.4 298.917 1365.66 300.207 1360.22 301.64C1355.06 302.787 1350.61 304.22 1346.89 305.94V452.57ZM1448.85 185.97C1448.85 175.077 1452.44 165.903 1459.6 158.45C1467.06 150.997 1476.8 147.27 1488.84 147.27C1500.88 147.27 1510.49 150.997 1517.65 158.45C1525.11 165.903 1528.83 175.077 1528.83 185.97C1528.83 196.863 1525.11 206.037 1517.65 213.49C1510.49 220.943 1500.88 224.67 1488.84 224.67C1476.8 224.67 1467.06 220.943 1459.6 213.49C1452.44 206.037 1448.85 196.863 1448.85 185.97ZM1525.39 452.57C1522.24 453.143 1517.51 453.86 1511.2 454.72C1505.18 455.867 1499.02 456.44 1492.71 456.44C1486.41 456.44 1480.67 456.01 1475.51 455.15C1470.64 454.29 1466.48 452.57 1463.04 449.99C1459.6 447.41 1456.88 443.97 1454.87 439.67C1453.15 435.083 1452.29 429.207 1452.29 422.04V247.03C1455.45 246.457 1460.03 245.74 1466.05 244.88C1472.36 243.733 1478.67 243.16 1484.97 243.16C1491.28 243.16 1496.87 243.59 1501.74 244.45C1506.9 245.31 1511.2 247.03 1514.64 249.61C1518.08 252.19 1520.66 255.773 1522.38 260.36C1524.39 264.66 1525.39 270.393 1525.39 277.56V452.57ZM1675.13 313.25C1687.17 313.25 1696.34 310.527 1702.65 305.08C1709.24 299.347 1712.54 290.747 1712.54 279.28C1712.54 268.387 1709.1 260.073 1702.22 254.34C1695.63 248.32 1685.88 245.31 1672.98 245.31C1668.39 245.31 1664.52 245.453 1661.37 245.74C1658.5 245.74 1655.49 246.027 1652.34 246.6V313.25H1675.13ZM1652.77 451.28C1649.62 452.14 1644.6 453 1637.72 453.86C1631.13 454.72 1624.53 455.15 1617.94 455.15C1611.35 455.15 1605.47 454.577 1600.31 453.43C1595.44 452.57 1591.28 450.85 1587.84 448.27C1584.4 445.69 1581.82 442.107 1580.1 437.52C1578.38 432.933 1577.52 426.913 1577.52 419.46V216.93C1577.52 210.91 1579.1 206.323 1582.25 203.17C1585.69 199.73 1590.28 197.007 1596.01 195C1605.76 191.56 1616.79 189.123 1629.12 187.69C1641.73 185.97 1654.35 185.11 1666.96 185.11C1706.52 185.11 1736.76 193.567 1757.69 210.48C1778.62 227.393 1789.08 250.327 1789.08 279.28C1789.08 293.327 1786.79 306.083 1782.2 317.55C1777.9 328.73 1771.31 338.477 1762.42 346.79C1753.82 354.817 1742.78 361.123 1729.31 365.71C1716.12 370.01 1700.79 372.16 1683.3 372.16H1652.77V451.28ZM2028.18 452.57C2025.32 453.43 2020.73 454.29 2014.42 455.15C2008.4 456.01 2002.1 456.44 1995.5 456.44C1989.2 456.44 1983.46 456.01 1978.3 455.15C1973.43 454.29 1969.27 452.57 1965.83 449.99C1962.39 447.41 1959.67 443.97 1957.66 439.67C1955.94 435.083 1955.08 429.207 1955.08 422.04V326.58C1955.08 314.827 1952.07 306.657 1946.05 302.07C1940.32 297.197 1933.15 294.76 1924.55 294.76C1918.82 294.76 1913.37 295.477 1908.21 296.91C1903.05 298.343 1898.9 300.063 1895.74 302.07V452.57C1892.88 453.43 1888.29 454.29 1881.98 455.15C1875.96 456.01 1869.66 456.44 1863.06 456.44C1856.76 456.44 1851.02 456.01 1845.86 455.15C1840.99 454.29 1836.83 452.57 1833.39 449.99C1829.95 447.41 1827.23 443.97 1825.22 439.67C1823.5 435.083 1822.64 429.207 1822.64 422.04V172.64C1825.8 172.067 1830.38 171.35 1836.4 170.49C1842.71 169.343 1849.02 168.77 1855.32 168.77C1861.63 168.77 1867.22 169.2 1872.09 170.06C1877.25 170.92 1881.55 172.64 1884.99 175.22C1888.43 177.8 1891.01 181.383 1892.73 185.97C1894.74 190.27 1895.74 196.003 1895.74 203.17V245.31C1899.47 243.877 1905.06 242.3 1912.51 240.58C1920.25 238.573 1928.71 237.57 1937.88 237.57C1966.26 237.57 1988.34 244.737 2004.1 259.07C2020.16 273.117 2028.18 294.187 2028.18 322.28V452.57ZM2071.6 185.97C2071.6 175.077 2075.18 165.903 2082.35 158.45C2089.8 150.997 2099.55 147.27 2111.59 147.27C2123.63 147.27 2133.23 150.997 2140.4 158.45C2147.85 165.903 2151.58 175.077 2151.58 185.97C2151.58 196.863 2147.85 206.037 2140.4 213.49C2133.23 220.943 2123.63 224.67 2111.59 224.67C2099.55 224.67 2089.8 220.943 2082.35 213.49C2075.18 206.037 2071.6 196.863 2071.6 185.97ZM2148.14 452.57C2144.98 453.143 2140.25 453.86 2133.95 454.72C2127.93 455.867 2121.76 456.44 2115.46 456.44C2109.15 456.44 2103.42 456.01 2098.26 455.15C2093.38 454.29 2089.23 452.57 2085.79 449.99C2082.35 447.41 2079.62 443.97 2077.62 439.67C2075.9 435.083 2075.04 429.207 2075.04 422.04V247.03C2078.19 246.457 2082.78 245.74 2088.8 244.88C2095.1 243.733 2101.41 243.16 2107.72 243.16C2114.02 243.16 2119.61 243.59 2124.49 244.45C2129.65 245.31 2133.95 247.03 2137.39 249.61C2140.83 252.19 2143.41 255.773 2145.13 260.36C2147.13 264.66 2148.14 270.393 2148.14 277.56V452.57Z" fill="white"/>
<path d="M379.714 323.033C382.427 321.746 385.573 321.746 388.286 323.033L559.953 404.465C567.572 408.079 567.572 418.921 559.953 422.535L388.286 503.967C385.573 505.254 382.427 505.254 379.714 503.967L208.047 422.535C200.428 418.921 200.428 408.079 208.047 404.465L379.714 323.033Z" fill="#BE0FCD"/>
<path d="M379.714 244.033C382.427 242.746 385.573 242.746 388.286 244.033L559.953 325.465C567.572 329.079 567.572 339.921 559.953 343.535L388.286 424.967C385.573 426.254 382.427 426.254 379.714 424.967L208.047 343.535C200.428 339.921 200.428 329.079 208.047 325.465L379.714 244.033Z" fill="#4047EF" fill-opacity="0.85"/>
<path d="M379.714 138.033C382.427 136.746 385.573 136.746 388.286 138.033L559.953 219.465C567.572 223.079 567.572 233.921 559.953 237.535L388.286 318.967C385.573 320.254 382.427 320.254 379.714 318.967L208.047 237.535C200.428 233.921 200.428 223.079 208.047 219.465L379.714 138.033Z" fill="#BD0FCD"/>
</svg>
